<!-- Generated by IcoMoon.io -->
<svg version="1.1" xmlns="http://www.w3.org/2000/svg" width="32" height="32" viewBox="0 0 32 32">
<path fill="none" stroke="#fafafa" stroke-linejoin="round" stroke-linecap="round" stroke-miterlimit="4" stroke-width="2.6667" d="M8.125 14.972c-0.080-0.49-0.125-1.056-0.125-1.631 0-0.003 0-0.005 0-0.008v0c0-5.891 4.807-10.667 10.737-10.667 5.929 0 10.736 4.776 10.736 10.667 0 1.331-0.245 2.605-0.693 3.78-0.093 0.243-0.14 0.365-0.16 0.46-0.019 0.077-0.031 0.166-0.032 0.258v0.001c-0.003 0.097 0.011 0.204 0.037 0.419l0.537 4.36c0.057 0.473 0.087 0.709 0.008 0.88-0.070 0.151-0.19 0.269-0.338 0.334l-0.004 0.002c-0.173 0.073-0.408 0.040-0.88-0.029l-4.245-0.623c-0.223-0.032-0.333-0.049-0.435-0.048-0.003-0-0.006-0-0.009-0-0.091 0-0.18 0.010-0.266 0.030l0.008-0.002c-0.099 0.021-0.225 0.068-0.477 0.163-1.128 0.432-2.433 0.683-3.796 0.683-0.575 0-1.14-0.045-1.692-0.13l0.061 0.008M10.176 29.333c3.953 0 7.157-3.283 7.157-7.333s-3.204-7.333-7.157-7.333c-3.953 0-7.159 3.283-7.159 7.333 0 0.813 0.129 1.597 0.369 2.329 0.1 0.309 0.151 0.464 0.168 0.569 0.017 0.111 0.020 0.173 0.013 0.284-0.007 0.107-0.033 0.227-0.087 0.468l-0.815 3.683 3.993-0.545c0.217-0.029 0.327-0.045 0.421-0.044 0.101 0 0.153 0.007 0.253 0.027 0.093 0.017 0.231 0.067 0.508 0.164 0.693 0.253 1.493 0.399 2.328 0.399 0.002 0 0.004 0 0.006 0h-0z"></path>
</svg>
